<svg width="82" height="71" viewBox="0 0 82 71" fill="none" xmlns="http://www.w3.org/2000/svg">
<path d="M43.8638 7.0263C44.3801 5.10285 46.3016 3.91368 48.259 4.30769C56.8126 6.03413 78.272 11.8367 81.0359 27.0058C84.5026 46.011 77.5048 58.9199 77.5048 58.9199C77.5048 58.9199 71.1595 70.038 58.0064 70.8439C47.9829 71.4599 40.6517 67.8101 37.73 66.0406C36.8517 65.5069 36.2279 64.6437 36.0057 63.6408L32.8868 49.686C32.7541 49.095 32.7685 48.4789 32.9226 47.8915L43.8674 7.0263H43.8638Z" fill="white"/>
<path d="M41.91 19.0933C41.91 19.0933 22.9995 55.0012 22.7808 55.0048C22.598 55.0084 22.3471 55.0048 22.0459 54.9905C18.8984 54.8436 10.083 53.504 11.1728 46.1899C11.2194 45.8854 10.9864 45.6061 10.6781 45.5882C8.55226 45.4556 1.43618 44.6103 1.02033 39.2734C0.604478 33.9364 4.50488 31.6405 5.96753 30.874C6.24357 30.7307 6.33678 30.3833 6.16828 30.1218C5.2613 28.6998 3.07449 24.4338 6.26508 20.2502C9.25491 16.3317 12.0978 15.4112 13.27 15.1963C13.5676 15.1426 13.7576 14.856 13.693 14.5623C13.2736 12.6818 12.2985 6.65002 16.3961 4.40063C20.4937 2.15124 24.2005 2.95357 25.0931 3.22937C25.2329 3.27235 25.3799 3.25802 25.509 3.18281C26.4626 2.64195 30.6569 0.431956 34.9481 0.861776C39.2392 1.2916 44.7349 2.30526 46.3446 2.60613C46.5776 2.64911 46.8178 2.53449 46.9182 2.31958C47.2229 1.66411 48.1585 0.399719 50.815 0.808048C54.1525 1.32025 59.2288 2.32675 59.2826 5.09909C59.2897 5.38205 59.5228 5.60771 59.806 5.60771C60.9639 5.61845 63.5881 5.80113 64.85 7.20162C66.499 9.03194 68.0836 11.3136 67.2303 13.0687C66.4381 14.6984 65.3805 17.5997 63.6705 17.9579C63.4411 18.0044 63.2582 18.1799 63.2403 18.4128C63.1507 19.5196 62.7241 22.4853 60.7022 23.173C59.132 23.7067 58.0673 23.5957 57.4937 23.4381C57.2678 23.3772 57.0205 23.456 56.9058 23.6602C56.662 24.0828 55.8231 24.7275 53.0771 25.186C48.6819 25.9167 41.9136 19.6986 41.9136 19.6986" fill="white"/>
<path d="M22.5908 37.2035C22.5908 37.2035 31.7432 37.9342 34.8549 29.8858C37.9666 21.8374 33.5751 19.8245 45.4734 13.241C45.4734 13.241 58.4724 12.8757 58.6552 27.6902C58.6552 27.6902 56.6441 30.6559 58.6552 35.1905C59.8275 37.8339 61.0356 39.0303 61.0356 39.0303C61.0356 39.0303 54.995 40.309 54.2637 41.5913C53.5324 42.8736 57.3324 42.7195 57.3324 42.7195L58.4294 46.0721C58.4294 46.0721 52.2059 47.3509 51.6574 48.5723C51.1089 49.7937 29.732 50.7536 27.8643 48.5293C27.7926 48.4469 27.7531 48.3574 27.7388 48.2678C27.3731 45.7068 24.5052 44.1236 24.5052 44.1236C24.5052 44.1236 19.221 42.3542 22.5944 37.2035H22.5908Z" fill="white"/>
<path d="M39.3576 56.4232C39.3576 56.4232 37.0919 55.5564 34.5466 54.1953C31.5675 52.5978 28.2084 50.3197 27.6707 47.9557C26.6777 43.5751 51.324 48.7867 51.324 48.7867C51.324 48.7867 54.5469 47.5044 56.6512 47.4614C58.7556 47.4185 58.666 47.8733 58.666 47.8733C58.666 47.8733 58.8488 50.0224 53.9052 50.2517C53.9052 50.2517 57.0169 51.1651 57.336 52.9022C57.655 54.6394 57.8845 55.6459 56.4218 57.1073C54.9592 58.5687 54.3175 60.6748 39.3504 56.4232H39.3576Z" fill="white"/>
<path d="M34.8549 54.5137C34.8549 54.5137 38.6083 61.3729 36.7764 65.2592C36.7764 65.2592 25.9999 55.5 22.4999 55C18.9999 54.5 25.769 51.2929 24.4999 47.4997C23.2309 43.7065 36.0917 52.8696 34.8549 54.5173V54.5137Z" fill="white"/>
<path d="M56.6051 49.1309V52.761L51.7689 50.094L56.6051 49.1309Z" fill="white"/>
<path d="M43.5715 10.5799C44.024 8.89385 45.7083 7.85147 47.4241 8.19683C54.9219 9.71017 73.7323 14.7965 76.1551 28.0931C79.1938 44.7523 73.0598 56.0677 73.0598 56.0677C73.0598 56.0677 67.4978 65.8134 55.9683 66.5198C47.1821 67.0598 40.7559 63.8605 38.1948 62.3095C37.425 61.8416 36.8782 61.085 36.6834 60.2059L33.9495 47.9736C33.8332 47.4556 33.8458 46.9155 33.9809 46.4006L43.5746 10.5799H43.5715Z" fill="#D76524"/>
<path d="M41.8589 21.1584C41.8589 21.1584 25.2827 52.6338 25.091 52.637C24.9307 52.6401 24.7108 52.637 24.4468 52.6244C21.6878 52.4957 13.9606 51.3214 14.9159 44.9102C14.9567 44.6433 14.7525 44.3984 14.4822 44.3827C12.6188 44.2665 6.38112 43.5256 6.0166 38.8474C5.65208 34.1693 9.07101 32.1567 10.3531 31.4849C10.5951 31.3593 10.6768 31.0547 10.5291 30.8255C9.73406 29.5791 7.8172 25.8397 10.6139 22.1725C13.2347 18.7377 15.7266 17.9308 16.7542 17.7424C17.015 17.6953 17.1816 17.4441 17.125 17.1867C16.7573 15.5383 15.9026 10.2511 19.4944 8.27937C23.0861 6.30765 26.3354 7.01094 27.1178 7.2527C27.2404 7.29037 27.3692 7.27781 27.4824 7.21188C28.3182 6.73779 31.9949 4.80059 35.7563 5.17736C39.5178 5.55412 44.3351 6.44265 45.746 6.70639C45.9503 6.74406 46.1608 6.64359 46.2488 6.45521C46.5159 5.88065 47.3361 4.77234 49.6646 5.13026C52.5902 5.57924 57.0398 6.46149 57.0869 8.89162C57.0932 9.13965 57.2975 9.33745 57.5457 9.33745C58.5607 9.34687 60.861 9.507 61.9671 10.7346C63.4126 12.339 64.8015 14.339 64.0537 15.8774C63.3592 17.306 62.4322 19.8491 60.9333 20.1631C60.7321 20.2039 60.5719 20.3578 60.5562 20.5619C60.4776 21.532 60.1037 24.1317 58.3313 24.7345C56.955 25.2023 56.0217 25.105 55.5189 24.9668C55.3209 24.9135 55.1041 24.9825 55.0035 25.1615C54.7899 25.532 54.0545 26.0971 51.6474 26.499C47.7949 27.1395 41.862 21.689 41.862 21.689" fill="#48352E"/>
<path d="M24.9244 37.0326C24.9244 37.0326 32.947 37.6731 35.6746 30.6182C38.4022 23.5633 34.5528 21.7988 44.9824 16.0281C44.9824 16.0281 56.3768 15.7078 56.537 28.6936C56.537 28.6936 54.7741 31.2932 56.537 35.2681C57.5646 37.5852 58.6236 38.6338 58.6236 38.6338C58.6236 38.6338 53.3286 39.7547 52.6876 40.8787C52.0465 42.0027 55.3775 41.8677 55.3775 41.8677L56.3391 44.8065C56.3391 44.8065 50.8839 45.9274 50.4031 46.998C49.9223 48.0686 31.1841 48.9101 29.5469 46.9603C29.4841 46.8881 29.4495 46.8096 29.4369 46.7311C29.1164 44.4862 26.6025 43.0985 26.6025 43.0985C26.6025 43.0985 21.9706 41.5475 24.9276 37.0326H24.9244Z" fill="white"/>
<path d="M39.6215 53.8804C39.6215 53.8804 37.6355 53.1206 35.4044 51.9275C32.793 50.5272 29.8486 48.5303 29.3772 46.4581C28.5068 42.6183 50.1108 47.1865 50.1108 47.1865C50.1108 47.1865 52.9358 46.0625 54.7804 46.0249C56.625 45.9872 56.5465 46.3859 56.5465 46.3859C56.5465 46.3859 56.7067 48.2697 52.3734 48.4707C52.3734 48.4707 55.101 49.2713 55.3806 50.7941C55.6603 52.3168 55.8614 53.1991 54.5793 54.4801C53.2972 55.761 52.7347 57.6072 39.6152 53.8804H39.6215Z" fill="white"/>
<path d="M35.6746 52.2074C35.6746 52.2074 38.9647 58.2199 37.3589 61.6264L26.9702 52.9703C26.9702 52.9703 30.6782 50.3644 29.5658 47.0394C28.4534 43.7145 36.7587 50.7662 35.6746 52.2105V52.2074Z" fill="white"/>
<path d="M54.74 47.4863V50.6684L50.5008 48.3305L54.74 47.4863Z" fill="white"/>
<path d="M42.4748 35.5033L50.0982 35.1831L51.1415 29.4908C51.1415 29.4908 44.4011 26.4453 39.6686 31.8958L42.5565 33.1799L40.7904 35.5033" fill="#48352E"/>
<path d="M24.472 47.6911C24.5254 51.3237 24.9559 52.4603 24.9559 52.4603C24.9559 52.4603 25.4367 53.4085 28.3246 52.768C31.2124 52.1275 31.7529 47.0757 31.7529 47.0757C31.7529 47.0757 30.6562 43.6817 29.2201 44.3253C27.7841 44.969 24.472 47.6911 24.472 47.6911Z" fill="#48352E"/>
</svg>
